<?xml version="1.0" encoding="UTF-8" standalone="no"?>
<!DOCTYPE svg PUBLIC "-//W3C//DTD SVG 1.1//EN"
 "http://www.w3.org/Graphics/SVG/1.1/DTD/svg11.dtd">
<!-- Generated by graphviz version 2.38.0 (20140413.2041)
 -->
<!-- Title: G Pages: 1 -->
<svg width="557pt" height="780pt"
 viewBox="0.00 0.00 557.00 780.00" xmlns="http://www.w3.org/2000/svg" xmlns:xlink="http://www.w3.org/1999/xlink">
<g id="graph0" class="graph" transform="scale(1 1) rotate(0) translate(4 776)">
<title>G</title>
<polygon fill="white" stroke="none" points="-4,4 -4,-776 553,-776 553,4 -4,4"/>
<g id="clust1" class="cluster"><title>cluster_Global</title>
<path fill="none" stroke="gray" d="M20,-44C20,-44 529,-44 529,-44 535,-44 541,-50 541,-56 541,-56 541,-752 541,-752 541,-758 535,-764 529,-764 529,-764 20,-764 20,-764 14,-764 8,-758 8,-752 8,-752 8,-56 8,-56 8,-50 14,-44 20,-44"/>
<text text-anchor="middle" x="274.5" y="-751.2" font-family="Times,serif" font-size="11.00" fill="gray">Global</text>
</g>
<!-- \\EmailSender -->
<g id="node1" class="node"><title>\\EmailSender</title>
<polygon fill="none" stroke="black" points="475.5,-736 384.5,-736 384.5,-700 475.5,-700 475.5,-736"/>
<text text-anchor="middle" x="430" y="-715.2" font-family="Courier,monospace" font-size="11.00">EmailSender</text>
</g>
<!-- \\HttpRequest_Exception -->
<g id="node2" class="node"><title>\\HttpRequest_Exception</title>
<polygon fill="none" stroke="black" points="509,-628 351,-628 351,-592 509,-592 509,-628"/>
<text text-anchor="middle" x="430" y="-607.2" font-family="Courier,monospace" font-size="11.00">HttpRequest_Exception</text>
</g>
<!-- \\Exception -->
<g id="node15" class="node"><title>\\Exception</title>
<ellipse fill="none" stroke="black" cx="135.5" cy="-18" rx="48.9926" ry="18"/>
<text text-anchor="middle" x="135.5" y="-14.3" font-family="Times,serif" font-size="14.00" fill="gray">\Exception</text>
</g>
<!-- \\HttpRequest_Exception&#45;&gt;\\Exception -->
<g id="edge1" class="edge"><title>\\HttpRequest_Exception&#45;&gt;\\Exception</title>
<path fill="none" stroke="black" d="M350.911,-599.965C341.854,-595.918 333.537,-590.424 327,-583 166.123,-400.286 422.632,-216.537 255,-40 239.319,-23.4863 215.554,-17.0373 193.413,-15.08"/>
<polygon fill="none" stroke="black" points="193.581,-11.5839 183.389,-14.4768 193.161,-18.5712 193.581,-11.5839"/>
</g>
<!-- \\AbonentRepository_Exception -->
<g id="node3" class="node"><title>\\AbonentRepository_Exception</title>
<polygon fill="none" stroke="black" points="529.5,-574 330.5,-574 330.5,-538 529.5,-538 529.5,-574"/>
<text text-anchor="middle" x="430" y="-553.2" font-family="Courier,monospace" font-size="11.00">AbonentRepository_Exception</text>
</g>
<!-- \\AbonentRepository_Exception&#45;&gt;\\Exception -->
<g id="edge2" class="edge"><title>\\AbonentRepository_Exception&#45;&gt;\\Exception</title>
<path fill="none" stroke="black" d="M336.738,-537.746C333.205,-535.18 329.929,-532.279 327,-529 180.651,-365.172 407.405,-198.21 255,-40 239.264,-23.6647 215.608,-17.2186 193.56,-15.2159"/>
<polygon fill="none" stroke="black" points="193.778,-11.7227 183.578,-14.5888 193.339,-18.7089 193.778,-11.7227"/>
</g>
<!-- \\IntertelecomNotify_Exception -->
<g id="node4" class="node"><title>\\IntertelecomNotify_Exception</title>
<polygon fill="none" stroke="black" points="533,-520 327,-520 327,-484 533,-484 533,-520"/>
<text text-anchor="middle" x="430" y="-499.2" font-family="Courier,monospace" font-size="11.00">IntertelecomNotify_Exception</text>
</g>
<!-- \\IntertelecomNotify_Exception&#45;&gt;\\Exception -->
<g id="edge3" class="edge"><title>\\IntertelecomNotify_Exception&#45;&gt;\\Exception</title>
<path fill="none" stroke="black" d="M337.255,-483.998C333.533,-481.372 330.081,-478.388 327,-475 195.15,-330.027 392.207,-179.914 255,-40 239.19,-23.8786 215.654,-17.4393 193.713,-15.3841"/>
<polygon fill="none" stroke="black" points="193.652,-11.8729 183.446,-14.7165 193.198,-18.8581 193.652,-11.8729"/>
</g>
<!-- \\Abonent_Exception -->
<g id="node5" class="node"><title>\\Abonent_Exception</title>
<polygon fill="none" stroke="black" points="495.5,-466 364.5,-466 364.5,-430 495.5,-430 495.5,-466"/>
<text text-anchor="middle" x="430" y="-445.2" font-family="Courier,monospace" font-size="11.00">Abonent_Exception</text>
</g>
<!-- \\Abonent_Exception&#45;&gt;\\Exception -->
<g id="edge4" class="edge"><title>\\Abonent_Exception&#45;&gt;\\Exception</title>
<path fill="none" stroke="black" d="M364.283,-442.321C350.345,-438.221 336.858,-431.594 327,-421 209.609,-294.837 377.051,-161.66 255,-40 239.072,-24.1232 215.631,-17.7 193.793,-15.5909"/>
<polygon fill="none" stroke="black" points="193.79,-12.0826 183.575,-14.893 193.313,-19.0663 193.79,-12.0826"/>
</g>
<!-- \\ConfigLoader_Exception -->
<g id="node6" class="node"><title>\\ConfigLoader_Exception</title>
<polygon fill="none" stroke="black" points="512.5,-412 347.5,-412 347.5,-376 512.5,-376 512.5,-412"/>
<text text-anchor="middle" x="430" y="-391.2" font-family="Courier,monospace" font-size="11.00">ConfigLoader_Exception</text>
</g>
<!-- \\ConfigLoader_Exception&#45;&gt;\\Exception -->
<g id="edge5" class="edge"><title>\\ConfigLoader_Exception&#45;&gt;\\Exception</title>
<path fill="none" stroke="black" d="M347.469,-381.581C339.861,-377.851 332.832,-373.082 327,-367 224.007,-259.583 361.958,-143.469 255,-40 238.901,-24.4263 215.546,-18.0302 193.818,-15.8596"/>
<polygon fill="none" stroke="black" points="193.878,-12.3549 183.652,-15.1265 193.375,-19.3368 193.878,-12.3549"/>
</g>
<!-- \\EmailSender_Exception -->
<g id="node7" class="node"><title>\\EmailSender_Exception</title>
<polygon fill="none" stroke="black" points="509,-358 351,-358 351,-322 509,-322 509,-358"/>
<text text-anchor="middle" x="430" y="-337.2" font-family="Courier,monospace" font-size="11.00">EmailSender_Exception</text>
</g>
<!-- \\EmailSender_Exception&#45;&gt;\\Exception -->
<g id="edge6" class="edge"><title>\\EmailSender_Exception&#45;&gt;\\Exception</title>
<path fill="none" stroke="black" d="M350.995,-328.838C342.096,-324.952 333.797,-319.803 327,-313 238.311,-224.23 346.964,-125.373 255,-40 238.717,-24.8836 215.554,-18.5222 194.021,-16.2537"/>
<polygon fill="none" stroke="black" points="194.189,-12.7563 183.946,-15.4654 193.643,-19.735 194.189,-12.7563"/>
</g>
<!-- \\AbonentRepositorySourceMySql -->
<g id="node8" class="node"><title>\\AbonentRepositorySourceMySql</title>
<polygon fill="none" stroke="black" points="533,-682 327,-682 327,-646 533,-646 533,-682"/>
<text text-anchor="middle" x="430" y="-661.2" font-family="Courier,monospace" font-size="11.00">AbonentRepositorySourceMySql</text>
</g>
<!-- \\AbonentRepositorySource_Interface -->
<g id="node14" class="node"><title>\\AbonentRepositorySource_Interface</title>
<polygon fill="none" stroke="black" points="255,-682 16,-682 16,-646 255,-646 255,-682"/>
<text text-anchor="middle" x="135.5" y="-661.2" font-family="Courier,monospace" font-size="11.00">AbonentRepositorySource_Interface</text>
</g>
<!-- \\AbonentRepositorySourceMySql&#45;&gt;\\AbonentRepositorySource_Interface -->
<g id="edge7" class="edge"><title>\\AbonentRepositorySourceMySql&#45;&gt;\\AbonentRepositorySource_Interface</title>
<path fill="none" stroke="black" stroke-dasharray="1,5" d="M326.698,-664C306.806,-664 285.719,-664 265.106,-664"/>
<polygon fill="none" stroke="black" points="265.033,-660.5 255.033,-664 265.033,-667.5 265.033,-660.5"/>
</g>
<!-- \\HttpRequest -->
<g id="node9" class="node"><title>\\HttpRequest</title>
<polygon fill="none" stroke="black" points="475.5,-304 384.5,-304 384.5,-268 475.5,-268 475.5,-304"/>
<text text-anchor="middle" x="430" y="-283.2" font-family="Courier,monospace" font-size="11.00">HttpRequest</text>
</g>
<!-- \\Abonent -->
<g id="node10" class="node"><title>\\Abonent</title>
<polygon fill="none" stroke="black" points="462,-250 398,-250 398,-214 462,-214 462,-250"/>
<text text-anchor="middle" x="430" y="-229.2" font-family="Courier,monospace" font-size="11.00">Abonent</text>
</g>
<!-- \\IntertelecomNotify -->
<g id="node11" class="node"><title>\\IntertelecomNotify</title>
<polygon fill="none" stroke="black" points="499,-196 361,-196 361,-160 499,-160 499,-196"/>
<text text-anchor="middle" x="430" y="-175.2" font-family="Courier,monospace" font-size="11.00">IntertelecomNotify</text>
</g>
<!-- \\ConfigLoader -->
<g id="node12" class="node"><title>\\ConfigLoader</title>
<polygon fill="none" stroke="black" points="479,-142 381,-142 381,-106 479,-106 479,-142"/>
<text text-anchor="middle" x="430" y="-121.2" font-family="Courier,monospace" font-size="11.00">ConfigLoader</text>
</g>
<!-- \\AbonentRepository -->
<g id="node13" class="node"><title>\\AbonentRepository</title>
<polygon fill="none" stroke="black" points="495.5,-88 364.5,-88 364.5,-52 495.5,-52 495.5,-88"/>
<text text-anchor="middle" x="430" y="-67.2" font-family="Courier,monospace" font-size="11.00">AbonentRepository</text>
</g>
</g>
</svg>
