<?xml version="1.0" encoding="UTF-8" standalone="no"?>
<!DOCTYPE svg PUBLIC "-//W3C//DTD SVG 1.1//EN"
 "http://www.w3.org/Graphics/SVG/1.1/DTD/svg11.dtd">
<!-- Generated by graphviz version 2.38.0 (20140413.2041)
 -->
<!-- Title: G Pages: 1 -->
<svg width="399pt" height="690pt"
 viewBox="0.00 0.00 399.49 690.00" xmlns="http://www.w3.org/2000/svg" xmlns:xlink="http://www.w3.org/1999/xlink">
<g id="graph0" class="graph" transform="scale(1 1) rotate(0) translate(4 686)">
<title>G</title>
<polygon fill="white" stroke="none" points="-4,4 -4,-686 395.491,-686 395.491,4 -4,4"/>
<g id="clust1" class="cluster"><title>cluster_Global</title>
<path fill="none" stroke="gray" d="M173.491,-8C173.491,-8 371.491,-8 371.491,-8 377.491,-8 383.491,-14 383.491,-20 383.491,-20 383.491,-662 383.491,-662 383.491,-668 377.491,-674 371.491,-674 371.491,-674 173.491,-674 173.491,-674 167.491,-674 161.491,-668 161.491,-662 161.491,-662 161.491,-20 161.491,-20 161.491,-14 167.491,-8 173.491,-8"/>
<text text-anchor="middle" x="272.491" y="-661.2" font-family="Times,serif" font-size="11.00" fill="gray">Global</text>
</g>
<!-- \\Abonent -->
<g id="node1" class="node"><title>\\Abonent</title>
<polygon fill="none" stroke="black" points="304.491,-646 240.491,-646 240.491,-610 304.491,-610 304.491,-646"/>
<text text-anchor="middle" x="272.491" y="-625.2" font-family="Courier,monospace" font-size="11.00">Abonent</text>
</g>
<!-- \\AbonentRepository -->
<g id="node2" class="node"><title>\\AbonentRepository</title>
<polygon fill="none" stroke="black" points="337.991,-592 206.991,-592 206.991,-556 337.991,-556 337.991,-592"/>
<text text-anchor="middle" x="272.491" y="-571.2" font-family="Courier,monospace" font-size="11.00">AbonentRepository</text>
</g>
<!-- \\ConfigLoader -->
<g id="node3" class="node"><title>\\ConfigLoader</title>
<polygon fill="none" stroke="black" points="321.491,-538 223.491,-538 223.491,-502 321.491,-502 321.491,-538"/>
<text text-anchor="middle" x="272.491" y="-517.2" font-family="Courier,monospace" font-size="11.00">ConfigLoader</text>
</g>
<!-- \\EmailSender -->
<g id="node4" class="node"><title>\\EmailSender</title>
<polygon fill="none" stroke="black" points="317.991,-484 226.991,-484 226.991,-448 317.991,-448 317.991,-484"/>
<text text-anchor="middle" x="272.491" y="-463.2" font-family="Courier,monospace" font-size="11.00">EmailSender</text>
</g>
<!-- \\HttpRequest -->
<g id="node5" class="node"><title>\\HttpRequest</title>
<polygon fill="none" stroke="black" points="317.991,-430 226.991,-430 226.991,-394 317.991,-394 317.991,-430"/>
<text text-anchor="middle" x="272.491" y="-409.2" font-family="Courier,monospace" font-size="11.00">HttpRequest</text>
</g>
<!-- \\IntertelecomNotify -->
<g id="node6" class="node"><title>\\IntertelecomNotify</title>
<polygon fill="none" stroke="black" points="341.491,-376 203.491,-376 203.491,-340 341.491,-340 341.491,-376"/>
<text text-anchor="middle" x="272.491" y="-355.2" font-family="Courier,monospace" font-size="11.00">IntertelecomNotify</text>
</g>
<!-- \\HttpRequest_Exception -->
<g id="node7" class="node"><title>\\HttpRequest_Exception</title>
<polygon fill="none" stroke="black" points="351.491,-322 193.491,-322 193.491,-286 351.491,-286 351.491,-322"/>
<text text-anchor="middle" x="272.491" y="-301.2" font-family="Courier,monospace" font-size="11.00">HttpRequest_Exception</text>
</g>
<!-- \\Exception -->
<g id="node13" class="node"><title>\\Exception</title>
<ellipse fill="none" stroke="black" cx="48.7457" cy="-169" rx="48.9926" ry="18"/>
<text text-anchor="middle" x="48.7457" y="-165.3" font-family="Times,serif" font-size="14.00" fill="gray">\Exception</text>
</g>
<!-- \\HttpRequest_Exception&#45;&gt;\\Exception -->
<g id="edge1" class="edge"><title>\\HttpRequest_Exception&#45;&gt;\\Exception</title>
<path fill="none" stroke="black" d="M193.21,-290.241C182.199,-286.762 171.303,-282.418 161.491,-277 123.72,-256.143 89.5318,-219.198 69.1899,-194.405"/>
<polygon fill="none" stroke="black" points="71.8308,-192.104 62.8371,-186.503 66.3754,-196.49 71.8308,-192.104"/>
</g>
<!-- \\AbonentRepository_Exception -->
<g id="node8" class="node"><title>\\AbonentRepository_Exception</title>
<polygon fill="none" stroke="black" points="371.991,-268 172.991,-268 172.991,-232 371.991,-232 371.991,-268"/>
<text text-anchor="middle" x="272.491" y="-247.2" font-family="Courier,monospace" font-size="11.00">AbonentRepository_Exception</text>
</g>
<!-- \\AbonentRepository_Exception&#45;&gt;\\Exception -->
<g id="edge2" class="edge"><title>\\AbonentRepository_Exception&#45;&gt;\\Exception</title>
<path fill="none" stroke="black" d="M189.822,-231.988C180.183,-229.265 170.558,-226.262 161.491,-223 135.354,-213.594 107.202,-199.967 85.693,-188.755"/>
<polygon fill="none" stroke="black" points="87.086,-185.533 76.6089,-183.958 83.8172,-191.723 87.086,-185.533"/>
</g>
<!-- \\IntertelecomNotify_Exception -->
<g id="node9" class="node"><title>\\IntertelecomNotify_Exception</title>
<polygon fill="none" stroke="black" points="375.491,-214 169.491,-214 169.491,-178 375.491,-178 375.491,-214"/>
<text text-anchor="middle" x="272.491" y="-193.2" font-family="Courier,monospace" font-size="11.00">IntertelecomNotify_Exception</text>
</g>
<!-- \\IntertelecomNotify_Exception&#45;&gt;\\Exception -->
<g id="edge3" class="edge"><title>\\IntertelecomNotify_Exception&#45;&gt;\\Exception</title>
<path fill="none" stroke="black" d="M169.381,-183.567C147.413,-180.892 124.983,-178.161 105.571,-175.797"/>
<polygon fill="none" stroke="black" points="105.766,-172.295 95.4164,-174.561 104.92,-179.244 105.766,-172.295"/>
</g>
<!-- \\Abonent_Exception -->
<g id="node10" class="node"><title>\\Abonent_Exception</title>
<polygon fill="none" stroke="black" points="337.991,-160 206.991,-160 206.991,-124 337.991,-124 337.991,-160"/>
<text text-anchor="middle" x="272.491" y="-139.2" font-family="Courier,monospace" font-size="11.00">Abonent_Exception</text>
</g>
<!-- \\Abonent_Exception&#45;&gt;\\Exception -->
<g id="edge4" class="edge"><title>\\Abonent_Exception&#45;&gt;\\Exception</title>
<path fill="none" stroke="black" d="M206.757,-149.882C174.599,-153.798 136.138,-158.481 105.33,-162.232"/>
<polygon fill="none" stroke="black" points="104.7,-158.783 95.1962,-163.466 105.546,-165.731 104.7,-158.783"/>
</g>
<!-- \\ConfigLoader_Exception -->
<g id="node11" class="node"><title>\\ConfigLoader_Exception</title>
<polygon fill="none" stroke="black" points="354.991,-106 189.991,-106 189.991,-70 354.991,-70 354.991,-106"/>
<text text-anchor="middle" x="272.491" y="-85.2" font-family="Courier,monospace" font-size="11.00">ConfigLoader_Exception</text>
</g>
<!-- \\ConfigLoader_Exception&#45;&gt;\\Exception -->
<g id="edge5" class="edge"><title>\\ConfigLoader_Exception&#45;&gt;\\Exception</title>
<path fill="none" stroke="black" d="M189.822,-106.012C180.183,-108.735 170.558,-111.738 161.491,-115 135.354,-124.406 107.202,-138.033 85.693,-149.245"/>
<polygon fill="none" stroke="black" points="83.8172,-146.277 76.6089,-154.042 87.086,-152.467 83.8172,-146.277"/>
</g>
<!-- \\EmailSender_Exception -->
<g id="node12" class="node"><title>\\EmailSender_Exception</title>
<polygon fill="none" stroke="black" points="351.491,-52 193.491,-52 193.491,-16 351.491,-16 351.491,-52"/>
<text text-anchor="middle" x="272.491" y="-31.2" font-family="Courier,monospace" font-size="11.00">EmailSender_Exception</text>
</g>
<!-- \\EmailSender_Exception&#45;&gt;\\Exception -->
<g id="edge6" class="edge"><title>\\EmailSender_Exception&#45;&gt;\\Exception</title>
<path fill="none" stroke="black" d="M193.21,-47.7585C182.199,-51.238 171.303,-55.5819 161.491,-61 123.72,-81.8571 89.5318,-118.802 69.1899,-143.595"/>
<polygon fill="none" stroke="black" points="66.3754,-141.51 62.8371,-151.497 71.8308,-145.896 66.3754,-141.51"/>
</g>
</g>
</svg>
