<?xml version="1.0" encoding="UTF-8" standalone="no"?>
<!DOCTYPE svg PUBLIC "-//W3C//DTD SVG 1.1//EN"
 "http://www.w3.org/Graphics/SVG/1.1/DTD/svg11.dtd">
<!-- Generated by graphviz version 2.38.0 (20140413.2041)
 -->
<!-- Title: G Pages: 1 -->
<svg width="399pt" height="690pt"
 viewBox="0.00 0.00 399.49 690.00" xmlns="http://www.w3.org/2000/svg" xmlns:xlink="http://www.w3.org/1999/xlink">
<g id="graph0" class="graph" transform="scale(1 1) rotate(0) translate(4 686)">
<title>G</title>
<polygon fill="white" stroke="none" points="-4,4 -4,-686 395.491,-686 395.491,4 -4,4"/>
<g id="clust1" class="cluster"><title>cluster_Global</title>
<path fill="none" stroke="gray" d="M173.491,-8C173.491,-8 371.491,-8 371.491,-8 377.491,-8 383.491,-14 383.491,-20 383.491,-20 383.491,-662 383.491,-662 383.491,-668 377.491,-674 371.491,-674 371.491,-674 173.491,-674 173.491,-674 167.491,-674 161.491,-668 161.491,-662 161.491,-662 161.491,-20 161.491,-20 161.491,-14 167.491,-8 173.491,-8"/>
<text text-anchor="middle" x="272.491" y="-661.2" font-family="Times,serif" font-size="11.00" fill="gray">Global</text>
</g>
<!-- \\EmailSender -->
<g id="node1" class="node"><title>\\EmailSender</title>
<polygon fill="none" stroke="black" points="317.991,-646 226.991,-646 226.991,-610 317.991,-610 317.991,-646"/>
<text text-anchor="middle" x="272.491" y="-625.2" font-family="Courier,monospace" font-size="11.00">EmailSender</text>
</g>
<!-- \\HttpRequest_Exception -->
<g id="node2" class="node"><title>\\HttpRequest_Exception</title>
<polygon fill="none" stroke="black" points="351.491,-592 193.491,-592 193.491,-556 351.491,-556 351.491,-592"/>
<text text-anchor="middle" x="272.491" y="-571.2" font-family="Courier,monospace" font-size="11.00">HttpRequest_Exception</text>
</g>
<!-- \\Exception -->
<g id="node13" class="node"><title>\\Exception</title>
<ellipse fill="none" stroke="black" cx="48.7457" cy="-439" rx="48.9926" ry="18"/>
<text text-anchor="middle" x="48.7457" y="-435.3" font-family="Times,serif" font-size="14.00" fill="gray">\Exception</text>
</g>
<!-- \\HttpRequest_Exception&#45;&gt;\\Exception -->
<g id="edge1" class="edge"><title>\\HttpRequest_Exception&#45;&gt;\\Exception</title>
<path fill="none" stroke="black" d="M193.21,-560.241C182.199,-556.762 171.303,-552.418 161.491,-547 123.72,-526.143 89.5318,-489.198 69.1899,-464.405"/>
<polygon fill="none" stroke="black" points="71.8308,-462.104 62.8371,-456.503 66.3754,-466.49 71.8308,-462.104"/>
</g>
<!-- \\AbonentRepository_Exception -->
<g id="node3" class="node"><title>\\AbonentRepository_Exception</title>
<polygon fill="none" stroke="black" points="371.991,-538 172.991,-538 172.991,-502 371.991,-502 371.991,-538"/>
<text text-anchor="middle" x="272.491" y="-517.2" font-family="Courier,monospace" font-size="11.00">AbonentRepository_Exception</text>
</g>
<!-- \\AbonentRepository_Exception&#45;&gt;\\Exception -->
<g id="edge2" class="edge"><title>\\AbonentRepository_Exception&#45;&gt;\\Exception</title>
<path fill="none" stroke="black" d="M189.822,-501.988C180.183,-499.265 170.558,-496.262 161.491,-493 135.354,-483.594 107.202,-469.967 85.693,-458.755"/>
<polygon fill="none" stroke="black" points="87.086,-455.533 76.6089,-453.958 83.8172,-461.723 87.086,-455.533"/>
</g>
<!-- \\IntertelecomNotify_Exception -->
<g id="node4" class="node"><title>\\IntertelecomNotify_Exception</title>
<polygon fill="none" stroke="black" points="375.491,-484 169.491,-484 169.491,-448 375.491,-448 375.491,-484"/>
<text text-anchor="middle" x="272.491" y="-463.2" font-family="Courier,monospace" font-size="11.00">IntertelecomNotify_Exception</text>
</g>
<!-- \\IntertelecomNotify_Exception&#45;&gt;\\Exception -->
<g id="edge3" class="edge"><title>\\IntertelecomNotify_Exception&#45;&gt;\\Exception</title>
<path fill="none" stroke="black" d="M169.381,-453.567C147.413,-450.892 124.983,-448.161 105.571,-445.797"/>
<polygon fill="none" stroke="black" points="105.766,-442.295 95.4164,-444.561 104.92,-449.244 105.766,-442.295"/>
</g>
<!-- \\Abonent_Exception -->
<g id="node5" class="node"><title>\\Abonent_Exception</title>
<polygon fill="none" stroke="black" points="337.991,-430 206.991,-430 206.991,-394 337.991,-394 337.991,-430"/>
<text text-anchor="middle" x="272.491" y="-409.2" font-family="Courier,monospace" font-size="11.00">Abonent_Exception</text>
</g>
<!-- \\Abonent_Exception&#45;&gt;\\Exception -->
<g id="edge4" class="edge"><title>\\Abonent_Exception&#45;&gt;\\Exception</title>
<path fill="none" stroke="black" d="M206.757,-419.882C174.599,-423.798 136.138,-428.481 105.33,-432.232"/>
<polygon fill="none" stroke="black" points="104.7,-428.783 95.1962,-433.466 105.546,-435.731 104.7,-428.783"/>
</g>
<!-- \\ConfigLoader_Exception -->
<g id="node6" class="node"><title>\\ConfigLoader_Exception</title>
<polygon fill="none" stroke="black" points="354.991,-376 189.991,-376 189.991,-340 354.991,-340 354.991,-376"/>
<text text-anchor="middle" x="272.491" y="-355.2" font-family="Courier,monospace" font-size="11.00">ConfigLoader_Exception</text>
</g>
<!-- \\ConfigLoader_Exception&#45;&gt;\\Exception -->
<g id="edge5" class="edge"><title>\\ConfigLoader_Exception&#45;&gt;\\Exception</title>
<path fill="none" stroke="black" d="M189.822,-376.012C180.183,-378.735 170.558,-381.738 161.491,-385 135.354,-394.406 107.202,-408.033 85.693,-419.245"/>
<polygon fill="none" stroke="black" points="83.8172,-416.277 76.6089,-424.042 87.086,-422.467 83.8172,-416.277"/>
</g>
<!-- \\EmailSender_Exception -->
<g id="node7" class="node"><title>\\EmailSender_Exception</title>
<polygon fill="none" stroke="black" points="351.491,-322 193.491,-322 193.491,-286 351.491,-286 351.491,-322"/>
<text text-anchor="middle" x="272.491" y="-301.2" font-family="Courier,monospace" font-size="11.00">EmailSender_Exception</text>
</g>
<!-- \\EmailSender_Exception&#45;&gt;\\Exception -->
<g id="edge6" class="edge"><title>\\EmailSender_Exception&#45;&gt;\\Exception</title>
<path fill="none" stroke="black" d="M193.21,-317.759C182.199,-321.238 171.303,-325.582 161.491,-331 123.72,-351.857 89.5318,-388.802 69.1899,-413.595"/>
<polygon fill="none" stroke="black" points="66.3754,-411.51 62.8371,-421.497 71.8308,-415.896 66.3754,-411.51"/>
</g>
<!-- \\HttpRequest -->
<g id="node8" class="node"><title>\\HttpRequest</title>
<polygon fill="none" stroke="black" points="317.991,-268 226.991,-268 226.991,-232 317.991,-232 317.991,-268"/>
<text text-anchor="middle" x="272.491" y="-247.2" font-family="Courier,monospace" font-size="11.00">HttpRequest</text>
</g>
<!-- \\Abonent -->
<g id="node9" class="node"><title>\\Abonent</title>
<polygon fill="none" stroke="black" points="304.491,-214 240.491,-214 240.491,-178 304.491,-178 304.491,-214"/>
<text text-anchor="middle" x="272.491" y="-193.2" font-family="Courier,monospace" font-size="11.00">Abonent</text>
</g>
<!-- \\IntertelecomNotify -->
<g id="node10" class="node"><title>\\IntertelecomNotify</title>
<polygon fill="none" stroke="black" points="341.491,-160 203.491,-160 203.491,-124 341.491,-124 341.491,-160"/>
<text text-anchor="middle" x="272.491" y="-139.2" font-family="Courier,monospace" font-size="11.00">IntertelecomNotify</text>
</g>
<!-- \\ConfigLoader -->
<g id="node11" class="node"><title>\\ConfigLoader</title>
<polygon fill="none" stroke="black" points="321.491,-106 223.491,-106 223.491,-70 321.491,-70 321.491,-106"/>
<text text-anchor="middle" x="272.491" y="-85.2" font-family="Courier,monospace" font-size="11.00">ConfigLoader</text>
</g>
<!-- \\AbonentRepository -->
<g id="node12" class="node"><title>\\AbonentRepository</title>
<polygon fill="none" stroke="black" points="337.991,-52 206.991,-52 206.991,-16 337.991,-16 337.991,-52"/>
<text text-anchor="middle" x="272.491" y="-31.2" font-family="Courier,monospace" font-size="11.00">AbonentRepository</text>
</g>
</g>
</svg>
